<?xml version="1.0" encoding="UTF-8" standalone="no"?>
<!DOCTYPE svg PUBLIC "-//W3C//DTD SVG 1.1//EN"
 "http://www.w3.org/Graphics/SVG/1.1/DTD/svg11.dtd">
<!-- Generated by graphviz version 14.1.3 (20260303.0454)
 -->
<!-- Title: pipeline Pages: 1 -->
<svg width="340pt" height="535pt"
 viewBox="0.00 0.00 340.00 535.00" xmlns="http://www.w3.org/2000/svg" xmlns:xlink="http://www.w3.org/1999/xlink">
<g id="graph0" class="graph" transform="scale(1 1) rotate(0) translate(4 531.16)">
<title>pipeline</title>
<!-- speak -->
<g id="node1" class="node">
<title>speak</title>
<path fill="#eef6ee" stroke="#000000" d="M250.43,-527.16C250.43,-527.16 81.38,-527.16 81.38,-527.16 75.38,-527.16 69.38,-521.16 69.38,-515.16 69.38,-515.16 69.38,-503.16 69.38,-503.16 69.38,-497.16 75.38,-491.16 81.38,-491.16 81.38,-491.16 250.43,-491.16 250.43,-491.16 256.43,-491.16 262.43,-497.16 262.43,-503.16 262.43,-503.16 262.43,-515.16 262.43,-515.16 262.43,-521.16 256.43,-527.16 250.43,-527.16"/>
<text xml:space="preserve" text-anchor="middle" x="165.9" y="-504.34" font-family="Roboto,Helvetica,Arial,sans-serif" font-size="11.00">Browser — hold Space and speak</text>
</g>
<!-- stt -->
<g id="node2" class="node">
<title>stt</title>
<path fill="white" stroke="#2e7d32" stroke-width="2" d="M319.8,-445.41C319.8,-445.41 12,-445.41 12,-445.41 6,-445.41 0,-439.41 0,-433.41 0,-433.41 0,-416.19 0,-416.19 0,-410.19 6,-404.19 12,-404.19 12,-404.19 319.8,-404.19 319.8,-404.19 325.8,-404.19 331.8,-410.19 331.8,-416.19 331.8,-416.19 331.8,-433.41 331.8,-433.41 331.8,-439.41 325.8,-445.41 319.8,-445.41"/>
<text xml:space="preserve" text-anchor="middle" x="165.9" y="-425.6" font-family="Roboto,Helvetica,Arial,sans-serif" font-size="11.00">STT · Moonshine streaming tiny (Q8, in&#45;process)</text>
<text xml:space="preserve" text-anchor="middle" x="165.9" y="-414.35" font-family="Roboto,Helvetica,Arial,sans-serif" font-size="11.00">partial transcripts stream live · finalize on release ≈ 100–250 ms</text>
</g>
<!-- speak&#45;&gt;stt -->
<g id="edge1" class="edge">
<title>speak&#45;&gt;stt</title>
<path fill="none" stroke="#000000" d="M165.9,-490.69C165.9,-480.51 165.9,-467.4 165.9,-455.62"/>
<polygon fill="#000000" stroke="#000000" points="168.7,-455.66 165.9,-447.66 163.1,-455.66 168.7,-455.66"/>
<text xml:space="preserve" text-anchor="middle" x="242.03" y="-464.61" font-family="Roboto,Helvetica,Arial,sans-serif" font-size="9.00" fill="#333333"> &#160;16 kHz PCM16 over one WebSocket</text>
</g>
<!-- llm -->
<g id="node3" class="node">
<title>llm</title>
<path fill="white" stroke="#2e7d32" stroke-width="2" d="M312.68,-358.44C312.68,-358.44 19.12,-358.44 19.12,-358.44 13.12,-358.44 7.12,-352.44 7.12,-346.44 7.12,-346.44 7.12,-317.97 7.12,-317.97 7.12,-311.97 13.12,-305.97 19.12,-305.97 19.12,-305.97 312.68,-305.97 312.68,-305.97 318.68,-305.97 324.68,-311.97 324.68,-317.97 324.68,-317.97 324.68,-346.44 324.68,-346.44 324.68,-352.44 318.68,-358.44 312.68,-358.44"/>
<text xml:space="preserve" text-anchor="middle" x="165.9" y="-338.63" font-family="Roboto,Helvetica,Arial,sans-serif" font-size="11.00">LLM · Groq &#160;openai/gpt&#45;oss&#45;20b</text>
<text xml:space="preserve" text-anchor="middle" x="165.9" y="-327.38" font-family="Roboto,Helvetica,Arial,sans-serif" font-size="11.00">first token ≈ 250–450 ms · short reply ≈ 0.5–1.2 s</text>
<text xml:space="preserve" text-anchor="middle" x="165.9" y="-316.13" font-family="Roboto,Helvetica,Arial,sans-serif" font-size="11.00">(+ a tool round&#45;trip if a tool is called — see “The agent loop”)</text>
</g>
<!-- stt&#45;&gt;llm -->
<g id="edge2" class="edge">
<title>stt&#45;&gt;llm</title>
<path fill="none" stroke="#000000" d="M165.9,-403.24C165.9,-392.94 165.9,-380.18 165.9,-368.39"/>
<polygon fill="#000000" stroke="#000000" points="168.7,-368.72 165.9,-360.72 163.1,-368.72 168.7,-368.72"/>
<text xml:space="preserve" text-anchor="middle" x="196.65" y="-377.64" font-family="Roboto,Helvetica,Arial,sans-serif" font-size="9.00" fill="#333333"> &#160;final transcript</text>
</g>
<!-- strip -->
<g id="node4" class="node">
<title>strip</title>
<path fill="white" stroke="#000000" d="M274.43,-268.97C274.43,-268.97 57.38,-268.97 57.38,-268.97 51.38,-268.97 45.37,-262.97 45.37,-256.97 45.37,-256.97 45.37,-244.97 45.37,-244.97 45.37,-238.97 51.37,-232.97 57.37,-232.97 57.37,-232.97 274.43,-232.97 274.43,-232.97 280.43,-232.97 286.43,-238.97 286.43,-244.97 286.43,-244.97 286.43,-256.97 286.43,-256.97 286.43,-262.97 280.43,-268.97 274.43,-268.97"/>
<text xml:space="preserve" text-anchor="middle" x="165.9" y="-246.15" font-family="Roboto,Helvetica,Arial,sans-serif" font-size="11.00">strip_markdown → [STREAM:] text to the UI</text>
</g>
<!-- llm&#45;&gt;strip -->
<g id="edge3" class="edge">
<title>llm&#45;&gt;strip</title>
<path fill="none" stroke="#000000" d="M165.9,-305.26C165.9,-296.83 165.9,-287.45 165.9,-278.94"/>
<polygon fill="#000000" stroke="#000000" points="168.7,-278.98 165.9,-270.98 163.1,-278.98 168.7,-278.98"/>
</g>
<!-- tts -->
<g id="node5" class="node">
<title>tts</title>
<path fill="white" stroke="#2e7d32" stroke-width="2" d="M305.93,-195.97C305.93,-195.97 25.88,-195.97 25.88,-195.97 19.88,-195.97 13.88,-189.97 13.88,-183.97 13.88,-183.97 13.88,-166.75 13.88,-166.75 13.88,-160.75 19.88,-154.75 25.88,-154.75 25.88,-154.75 305.93,-154.75 305.93,-154.75 311.93,-154.75 317.93,-160.75 317.93,-166.75 317.93,-166.75 317.93,-183.97 317.93,-183.97 317.93,-189.97 311.93,-195.97 305.93,-195.97"/>
<text xml:space="preserve" text-anchor="middle" x="165.9" y="-176.16" font-family="Roboto,Helvetica,Arial,sans-serif" font-size="11.00">TTS · Piper &#160;en_US&#45;amy&#45;medium (streaming subprocess)</text>
<text xml:space="preserve" text-anchor="middle" x="165.9" y="-164.91" font-family="Roboto,Helvetica,Arial,sans-serif" font-size="11.00">first audio ≈ 150–350 ms, then faster than real time</text>
</g>
<!-- strip&#45;&gt;tts -->
<g id="edge4" class="edge">
<title>strip&#45;&gt;tts</title>
<path fill="none" stroke="#000000" d="M165.9,-232.53C165.9,-224.66 165.9,-215.14 165.9,-206.19"/>
<polygon fill="#000000" stroke="#000000" points="168.7,-206.33 165.9,-198.33 163.1,-206.33 168.7,-206.33"/>
</g>
<!-- play -->
<g id="node6" class="node">
<title>play</title>
<path fill="#eef6ee" stroke="#000000" d="M314.93,-109C314.93,-109 16.88,-109 16.88,-109 10.88,-109 4.88,-103 4.88,-97 4.88,-97 4.88,-85 4.88,-85 4.88,-79 10.88,-73 16.88,-73 16.88,-73 314.93,-73 314.93,-73 320.93,-73 326.93,-79 326.93,-85 326.93,-85 326.93,-97 326.93,-97 326.93,-103 320.93,-109 314.93,-109"/>
<text xml:space="preserve" text-anchor="middle" x="165.9" y="-86.17" font-family="Roboto,Helvetica,Arial,sans-serif" font-size="11.00">Browser · Web Audio — gapless playback · Space = barge&#45;in</text>
</g>
<!-- tts&#45;&gt;play -->
<g id="edge5" class="edge">
<title>tts&#45;&gt;play</title>
<path fill="none" stroke="#000000" d="M165.9,-154C165.9,-143.39 165.9,-130.28 165.9,-118.85"/>
<polygon fill="#000000" stroke="#000000" points="168.7,-118.85 165.9,-110.85 163.1,-118.85 168.7,-118.85"/>
<text xml:space="preserve" text-anchor="middle" x="204.53" y="-128.2" font-family="Roboto,Helvetica,Arial,sans-serif" font-size="9.00" fill="#333333"> &#160;Int16 PCM frames</text>
</g>
<!-- done -->
<g id="node7" class="node">
<title>done</title>
<polygon fill="#fffbe6" stroke="#8a7c1a" points="294.3,-36 31.5,-36 31.5,0 300.3,0 300.3,-30 294.3,-36"/>
<polyline fill="none" stroke="#8a7c1a" points="294.3,-36 294.3,-30"/>
<polyline fill="none" stroke="#8a7c1a" points="300.3,-30 294.3,-30"/>
<text xml:space="preserve" text-anchor="middle" x="165.9" y="-13.18" font-family="Roboto,Helvetica,Arial,sans-serif" font-size="11.00">end&#45;to&#45;end to first audio ≈ 1–2 s &#160;&#160;(rough estimate)</text>
</g>
<!-- play&#45;&gt;done -->
<g id="edge6" class="edge">
<title>play&#45;&gt;done</title>
<path fill="none" stroke="#000000" stroke-dasharray="1,5" d="M165.9,-72.81C165.9,-61.65 165.9,-47.16 165.9,-36.03"/>
</g>
</g>
</svg>
